<svg height="81" style="background:0 0;background-color:initial;color-scheme:light" viewbox="-.5 -.5 491 81" width="491" xmlns="http://www.w3.org/2000/svg" xmlns:xlink="http://www.w3.org/1999/xlink"><defs></defs><g><g data-cell-id="0"><g data-cell-id="1"><g data-cell-id="k9sZ-nF2SqcPFKAt6STI-1"><g><rect fill="none" height="40" pointer-events="all" stroke="#000" style="stroke:#000" width="60" x="0" y="0"></rect></g><g><g transform="translate(-0.5 -0.5)"><switch><foreignobject height="100%" pointer-events="none" requiredfeatures="http://www.w3.org/TR/SVG11/feature#Extensibility" style="overflow:visible;text-align:left" width="100%"><div style="display: flex; align-items: unsafe center; justify-content: unsafe center; width: 58px; height: 1px; padding-top: 20px; margin-left: 1px;" xmlns="http://www.w3.org/1999/xhtml"><div style="box-sizing: border-box; font-size: 0; text-align: center; color: #000000; "><div "="" #000000;="" 1.2;="" all;="" color:="" helvetica";="" line-height:="" mal;="" normal;="" pointer-events:="" style="display: inline-block; font-size: 12px; font-family: " white-space:="" word-wrap:=""><font style="font-size: 16px;">A</font></div></div></div></foreignobject><text fill="light-dark(#000000, #ffffff)" font-family='"Helvetica"' font-size="12" text-anchor="middle" x="30" y="24">A</text></switch></g></g></g><g data-cell-id="k9sZ-nF2SqcPFKAt6STI-5"><g><rect fill="none" height="40" pointer-events="all" stroke="#000" style="stroke:#000" width="60" x="430" y="0"></rect></g><g><g transform="translate(-0.5 -0.5)"><switch><foreignobject height="100%" pointer-events="none" requiredfeatures="http://www.w3.org/TR/SVG11/feature#Extensibility" style="overflow:visible;text-align:left" width="100%"><div style="display: flex; align-items: unsafe center; justify-content: unsafe center; width: 58px; height: 1px; padding-top: 20px; margin-left: 431px;" xmlns="http://www.w3.org/1999/xhtml"><div style="box-sizing: border-box; font-size: 0; text-align: center; color: #000000; "><div "="" #000000;="" 1.2;="" all;="" color:="" helvetica";="" line-height:="" mal;="" normal;="" pointer-events:="" style="display: inline-block; font-size: 12px; font-family: " white-space:="" word-wrap:=""><font style="font-size: 16px;">B</font></div></div></div></foreignobject><text fill="light-dark(#000000, #ffffff)" font-family='"Helvetica"' font-size="12" text-anchor="middle" x="460" y="24">B</text></switch></g></g></g><g data-cell-id="k9sZ-nF2SqcPFKAt6STI-6"><g><rect fill="none" height="30" pointer-events="all" stroke="none" width="60" x="140" y="50"></rect></g><g><g transform="translate(-0.5 -0.5)"><switch><foreignobject height="100%" pointer-events="none" requiredfeatures="http://www.w3.org/TR/SVG11/feature#Extensibility" style="overflow:visible;text-align:left" width="100%"><div style="display: flex; align-items: unsafe center; justify-content: unsafe center; width: 58px; height: 1px; padding-top: 65px; margin-left: 141px;" xmlns="http://www.w3.org/1999/xhtml"><div style="box-sizing: border-box; font-size: 0; text-align: center; color: #000000; "><div "="" #000000;="" 1.2;="" all;="" color:="" helvetica";="" line-height:="" mal;="" normal;="" pointer-events:="" style="display: inline-block; font-size: 12px; font-family: " white-space:="" word-wrap:=""><font style="font-size: 16px;">R1</font></div></div></div></foreignobject><text fill="light-dark(#000000, #ffffff)" font-family='"Helvetica"' font-size="12" text-anchor="middle" x="170" y="69">R1</text></switch></g></g></g><g data-cell-id="k9sZ-nF2SqcPFKAt6STI-7"><g><rect fill="none" height="30" pointer-events="all" stroke="none" width="60" x="270" y="50"></rect></g><g><g transform="translate(-0.5 -0.5)"><switch><foreignobject height="100%" pointer-events="none" requiredfeatures="http://www.w3.org/TR/SVG11/feature#Extensibility" style="overflow:visible;text-align:left" width="100%"><div style="display: flex; align-items: unsafe center; justify-content: unsafe center; width: 58px; height: 1px; padding-top: 65px; margin-left: 271px;" xmlns="http://www.w3.org/1999/xhtml"><div style="box-sizing: border-box; font-size: 0; text-align: center; color: #000000; "><div "="" #000000;="" 1.2;="" all;="" color:="" helvetica";="" line-height:="" mal;="" normal;="" pointer-events:="" style="display: inline-block; font-size: 12px; font-family: " white-space:="" word-wrap:=""><font style="font-size: 16px;">R2</font></div></div></div></foreignobject><text fill="light-dark(#000000, #ffffff)" font-family='"Helvetica"' font-size="12" text-anchor="middle" x="300" y="69">R2</text></switch></g></g></g><g data-cell-id="k9sZ-nF2SqcPFKAt6STI-8"><g><path d="M60 20h80" fill="none" pointer-events="stroke" stroke="#000" stroke-miterlimit="10" style="stroke:#000"></path></g></g><g data-cell-id="k9sZ-nF2SqcPFKAt6STI-9"><g><path d="M2e2 20h70" fill="none" pointer-events="stroke" stroke="#000" stroke-miterlimit="10" style="stroke:#000"></path></g></g><g data-cell-id="k9sZ-nF2SqcPFKAt6STI-10"><g><path d="M330 20H430" fill="none" pointer-events="stroke" stroke="#000" stroke-miterlimit="10" style="stroke:#000"></path></g></g><g data-cell-id="k9sZ-nF2SqcPFKAt6STI-11"><g><path d="M142.56 10.49C144.6 6.47 156.15 3.5 169.74 3.5s25.14 2.97 27.17 6.99V33.01C194.88 37.03 183.33 40 169.74 40s-25.14-2.97-27.18-6.99z" fill="#9ea5b5" pointer-events="all" stroke="none" style="fill:#9ea5b5"></path><rect fill="none" height="0" pointer-events="all" stroke="none" width="0" x="142.5" y="3.5"></rect><ellipse cx="169.68" cy="11.02" fill="#b7bfd1" pointer-events="all" rx="27.176765375854217" ry="7.435834935457293" stroke="none" style="fill:#b7bfd1"></ellipse><path d="M144.56 31.22 144.75 14.06C150.35 17.35 163.44 19.09 176.09 18.22 188.75 17.36 197.49 14.13 197.04 10.49L196.91 28.01C196.65 29.92 194.03 31.62 190.04 32.48 186.76 33.08 182.55 33.23 178.74 32.9 174.94 32.56 171.99 31.77 170.83 30.78 169.14 29.72 165.73 28.96 161.72 28.75 157.7 28.54 153.58 28.9 150.68 29.72z" fill="#fff" fill-opacity=".4" pointer-events="all" stroke="none" style="fill:#fff"></path><rect fill="none" height="0" pointer-events="all" stroke="none" width="0" x="142.5" y="3.5"></rect><path d="M153.09 15.06 155.04 12.81l1.66.6L166.02 11.05 169.73 11.71l-10.23 2.5L161.61 14.56zm0-8.37L162.41 9.4l-2 .5L168.12 10.2 167.42 8.2 165.47 8.7 156.6 5.79zM170.73 9.9 180.65 7.54 178.55 7.09 186.97 6.69 184.86 9 182.86 8.3 173.64 10.7zM172.03 11.6l8.22.51-2 .4 8.72 2.4L183.76 15.82 174.74 13.21l-1.81.5z" fill="#363333" pointer-events="all" stroke="none" style="fill:#363333"></path><path d="M142.56 10.49C144.6 6.47 156.15 3.5 169.74 3.5s25.14 2.97 27.17 6.99V33.01C194.88 37.03 183.33 40 169.74 40s-25.14-2.97-27.18-6.99z" fill="none" pointer-events="all" stroke="#000" stroke-miterlimit="10" stroke-width=".6" style="stroke:#000"></path></g></g><g data-cell-id="k9sZ-nF2SqcPFKAt6STI-12"><g><path d="M272.56 10.49C274.6 6.47 286.15 3.5 299.74 3.5c13.59.0 25.14 2.97 27.17 6.99V33.01C324.88 37.03 313.33 40 299.74 40c-13.59.0-25.14-2.97-27.18-6.99z" fill="#9ea5b5" pointer-events="all" stroke="none" style="fill:#9ea5b5"></path><rect fill="none" height="0" pointer-events="all" stroke="none" width="0" x="272.5" y="3.5"></rect><ellipse cx="299.68" cy="11.02" fill="#b7bfd1" pointer-events="all" rx="27.176765375854217" ry="7.435834935457293" stroke="none" style="fill:#b7bfd1"></ellipse><path d="M274.56 31.22 274.75 14.06C280.35 17.35 293.44 19.09 306.09 18.22 318.75 17.36 327.49 14.13 327.04 10.49L326.91 28.01C326.65 29.92 324.03 31.62 320.04 32.48 316.76 33.08 312.55 33.23 308.74 32.9 304.94 32.56 301.99 31.77 300.83 30.78 299.14 29.72 295.73 28.96 291.72 28.75 287.7 28.54 283.58 28.9 280.68 29.72z" fill="#fff" fill-opacity=".4" pointer-events="all" stroke="none" style="fill:#fff"></path><rect fill="none" height="0" pointer-events="all" stroke="none" width="0" x="272.5" y="3.5"></rect><path d="M283.09 15.06 285.04 12.81 286.7 13.41 296.02 11.05 299.73 11.71l-10.23 2.5L291.61 14.56zm0-8.37L292.41 9.4l-2 .5L298.12 10.2 297.42 8.2 295.47 8.7 286.6 5.79zM300.73 9.9 310.65 7.54 308.55 7.09 316.97 6.69 314.86 9 312.86 8.3 303.64 10.7zM302.03 11.6 310.25 12.11l-2 .4L316.97 14.91 313.76 15.82 304.74 13.21l-1.81.5z" fill="#363333" pointer-events="all" stroke="none" style="fill:#363333"></path><path d="M272.56 10.49C274.6 6.47 286.15 3.5 299.74 3.5c13.59.0 25.14 2.97 27.17 6.99V33.01C324.88 37.03 313.33 40 299.74 40c-13.59.0-25.14-2.97-27.18-6.99z" fill="none" pointer-events="all" stroke="#000" stroke-miterlimit="10" stroke-width=".6" style="stroke:#000"></path></g></g></g></g></g></svg>