<svg height="299" style="background:0 0;background-color:initial;color-scheme:light dark" viewbox="0 0 588 299" width="588" xmlns="http://www.w3.org/2000/svg" xmlns:xlink="http://www.w3.org/1999/xlink"><defs></defs><g><g data-cell-id="0"><g data-cell-id="1"><g data-cell-id="gOZx8YEa-yZ0dCK2RanN-1"><g transform="translate(0.5,0.5)"></g><g data-cell-id="gOZx8YEa-yZ0dCK2RanN-2"><g transform="translate(0.5,0.5)"><path d="M177 140H117" fill="none" pointer-events="stroke" stroke="#000" stroke-miterlimit="10" style="stroke:light-dark(#000,#fff)"></path></g></g><g data-cell-id="gOZx8YEa-yZ0dCK2RanN-3"><g transform="translate(0.5,0.5)"><path d="M177 140l40-50" fill="none" pointer-events="stroke" stroke="#000" stroke-miterlimit="10" style="stroke:light-dark(#000,#fff)"></path></g></g><g data-cell-id="gOZx8YEa-yZ0dCK2RanN-4"><g transform="translate(0.5,0.5)"><path d="M117 140 77 90" fill="none" pointer-events="stroke" stroke="#000" stroke-miterlimit="10" style="stroke:light-dark(#000,#fff)"></path></g></g><g data-cell-id="gOZx8YEa-yZ0dCK2RanN-5"><g transform="translate(0.5,0.5)"><path d="M117 90H77" fill="none" pointer-events="stroke" stroke="#000" stroke-miterlimit="10" style="stroke:light-dark(#000,#fff)"></path></g></g><g data-cell-id="gOZx8YEa-yZ0dCK2RanN-6"><g transform="translate(0.5,0.5)"><path d="M217 90H177" fill="none" pointer-events="stroke" stroke="#000" stroke-miterlimit="10" style="stroke:light-dark(#000,#fff)"></path></g></g><g data-cell-id="gOZx8YEa-yZ0dCK2RanN-7"><g transform="translate(0.5,0.5)"><path d="M177 90l-20 20" fill="none" pointer-events="stroke" stroke="#000" stroke-miterlimit="10" style="stroke:light-dark(#000,#fff)"></path></g></g><g data-cell-id="gOZx8YEa-yZ0dCK2RanN-8"><g transform="translate(0.5,0.5)"><path d="M117 90l20 20" fill="none" pointer-events="stroke" stroke="#000" stroke-miterlimit="10" style="stroke:light-dark(#000,#fff)"></path></g></g><g data-cell-id="gOZx8YEa-yZ0dCK2RanN-9"><g transform="translate(0.5,0.5)"><path d="M137 110h20" fill="none" pointer-events="stroke" stroke="#000" stroke-miterlimit="10" style="stroke:light-dark(#000,#fff)"></path></g></g><g data-cell-id="gOZx8YEa-yZ0dCK2RanN-34"><g transform="translate(0.5,0.5)"><rect fill="none" height="30" pointer-events="all" stroke="none" width="80" x="107" y="110"></rect></g><g><g fill="#000" font-family="Helvetica" font-size="14" style="fill:light-dark(#000,#fff)" text-anchor="middle"><g transform="translate(147,131) scale(1)"><text><tspan>32 位 ALU</tspan></text></g></g></g></g></g><g data-cell-id="gOZx8YEa-yZ0dCK2RanN-11"><g transform="translate(0.5,0.5)"><path d="M197 40V83.63" fill="none" pointer-events="stroke" stroke="#000" stroke-miterlimit="10" style="stroke:light-dark(#000,#fff)"></path><path d="M197 88.88l-3.5-7 3.5 1.75 3.5-1.75z" fill="#000" pointer-events="all" stroke="#000" stroke-miterlimit="10" style="fill:light-dark(#000,#fff);stroke:light-dark(#000,#fff)"></path></g></g><g data-cell-id="gOZx8YEa-yZ0dCK2RanN-10"><g transform="translate(0.5,0.5)"><rect fill="none" height="40" pointer-events="all" stroke="#000" style="stroke:light-dark(#000,#fff)" width="100" x="147" y="0"></rect></g><g><g fill="#000" font-family="Helvetica" font-size="14" style="fill:light-dark(#000,#fff)" text-anchor="middle"><g transform="translate(197,26) scale(1)"><text><tspan>除数寄存器 Y</tspan></text></g></g></g></g><g data-cell-id="gOZx8YEa-yZ0dCK2RanN-17"><g transform="translate(0.5,0.5)"><path d="M147 230v60H497V246.37" fill="none" pointer-events="stroke" stroke="#000" stroke-miterlimit="10" style="stroke:light-dark(#000,#fff)"></path><path d="M497 241.12l3.5 7-3.5-1.75-3.5 1.75z" fill="#000" pointer-events="all" stroke="#000" stroke-miterlimit="10" style="fill:light-dark(#000,#fff);stroke:light-dark(#000,#fff)"></path></g></g><g data-cell-id="gOZx8YEa-yZ0dCK2RanN-28"><g transform="translate(0.5,0.5)"><path d="M147 230v60H7V50H97V83.63" fill="none" pointer-events="stroke" stroke="#000" stroke-miterlimit="10" style="stroke:light-dark(#000,#fff)"></path><path d="M97 88.88l-3.5-7L97 83.63l3.5-1.75z" fill="#000" pointer-events="all" stroke="#000" stroke-miterlimit="10" style="fill:light-dark(#000,#fff);stroke:light-dark(#000,#fff)"></path></g></g><g data-cell-id="gOZx8YEa-yZ0dCK2RanN-12"><g transform="translate(0.5,0.5)"><rect fill="none" height="40" pointer-events="all" stroke="#000" style="stroke:light-dark(#000,#fff)" width="120" x="87" y="190"></rect></g><g><g fill="#000" font-family="Helvetica" font-size="14" style="fill:light-dark(#000,#fff)" text-anchor="middle"><g transform="translate(147,216) scale(1)"><text><tspan>余数寄存器 R</tspan></text></g></g></g></g><g data-cell-id="gOZx8YEa-yZ0dCK2RanN-13"><g transform="translate(0.5,0.5)"><rect fill="none" height="40" pointer-events="all" stroke="#000" style="stroke:light-dark(#000,#fff)" width="140" x="207" y="190"></rect></g><g><g fill="#000" font-family="Helvetica" font-size="14" style="fill:light-dark(#000,#fff)" text-anchor="middle"><g transform="translate(277,216) scale(1)"><text><tspan>被除数/商寄存器 Q</tspan></text></g></g></g></g><g data-cell-id="gOZx8YEa-yZ0dCK2RanN-14"><g transform="translate(0.5,0.5)"><rect fill="none" height="30" pointer-events="all" stroke="none" width="80" x="247" y="90"></rect></g><g><g fill="#000" font-family="Helvetica" font-size="14" style="fill:light-dark(#000,#fff)" text-anchor="middle"><g transform="translate(287,111) scale(1)"><text><tspan>ALUop</tspan></text></g></g></g></g><g data-cell-id="gOZx8YEa-yZ0dCK2RanN-19"><g transform="translate(0.5,0.5)"><path d="M507.03 180 507 120H203.37" fill="none" pointer-events="stroke" stroke="#000" stroke-miterlimit="10" style="stroke:light-dark(#000,#fff)"></path><path d="M198.12 120l7-3.5-1.75 3.5 1.75 3.5z" fill="#000" pointer-events="all" stroke="#000" stroke-miterlimit="10" style="fill:light-dark(#000,#fff);stroke:light-dark(#000,#fff)"></path></g></g><g data-cell-id="gOZx8YEa-yZ0dCK2RanN-32"><g transform="translate(0.5,0.5)"><path d="M467 2e2H353.37" fill="none" pointer-events="stroke" stroke="#000" stroke-miterlimit="10" style="stroke:light-dark(#000,#fff)"></path><path d="M348.12 2e2l7-3.5-1.75 3.5 1.75 3.5z" fill="#000" pointer-events="all" stroke="#000" stroke-miterlimit="10" style="fill:light-dark(#000,#fff);stroke:light-dark(#000,#fff)"></path></g></g><g data-cell-id="gOZx8YEa-yZ0dCK2RanN-33"><g transform="translate(0.5,0.5)"><path d="M467 220H353.37" fill="none" pointer-events="stroke" stroke="#000" stroke-miterlimit="10" style="stroke:light-dark(#000,#fff)"></path><path d="M348.12 220l7-3.5-1.75 3.5 1.75 3.5z" fill="#000" pointer-events="all" stroke="#000" stroke-miterlimit="10" style="fill:light-dark(#000,#fff);stroke:light-dark(#000,#fff)"></path></g></g><g data-cell-id="gOZx8YEa-yZ0dCK2RanN-15"><g transform="translate(0.5,0.5)"><rect fill="none" height="60" pointer-events="all" rx="9" ry="9" stroke="#000" style="stroke:light-dark(#000,#fff)" width="120" x="467" y="180"></rect></g><g><g data-blocktextheight="35.233333333333334" fill="#000" font-family="Helvetica" font-size="14" style="fill:light-dark(#000,#fff)" text-anchor="middle"><g transform="translate(527,192.38) scale(1)"><text data-line-font-size="14" x="0" y="14"><tspan>控制逻辑</tspan></text><text data-line-font-size="14" x="0" y="30.8"><tspan>计数器 C</tspan><tspan dy="2.1" style="font-size:smaller"><tspan>n</tspan></tspan></text></g></g></g></g><g data-cell-id="gOZx8YEa-yZ0dCK2RanN-16"><g transform="translate(0.5,0.5)"><path d="M147 140v43.63" fill="none" pointer-events="stroke" stroke="#000" stroke-miterlimit="10" style="stroke:light-dark(#000,#fff)"></path><path d="M147 188.88l-3.5-7 3.5 1.75 3.5-1.75z" fill="#000" pointer-events="all" stroke="#000" stroke-miterlimit="10" style="fill:light-dark(#000,#fff);stroke:light-dark(#000,#fff)"></path></g></g><g data-cell-id="gOZx8YEa-yZ0dCK2RanN-18"><g transform="translate(0.5,0.5)"><path d="M557 290V246.37" fill="none" pointer-events="stroke" stroke="#000" stroke-miterlimit="10" style="stroke:light-dark(#000,#fff)"></path><path d="M557 241.12l3.5 7-3.5-1.75-3.5 1.75z" fill="#000" pointer-events="all" stroke="#000" stroke-miterlimit="10" style="fill:light-dark(#000,#fff);stroke:light-dark(#000,#fff)"></path></g></g><g data-cell-id="gOZx8YEa-yZ0dCK2RanN-20"><g transform="translate(0.5,0.5)"><rect fill="none" height="30" pointer-events="all" stroke="none" width="80" x="207" y="160"></rect></g><g><g fill="#000" font-family="Helvetica" font-size="14" style="fill:light-dark(#000,#fff)" text-anchor="middle"><g transform="translate(247,181) scale(1)"><text><tspan>64 位</tspan></text></g></g></g></g><g data-cell-id="gOZx8YEa-yZ0dCK2RanN-21"><g transform="translate(0.5,0.5)"><rect fill="none" height="30" pointer-events="all" stroke="none" width="30" x="107" y="150"></rect></g><g><g fill="#000" font-family="Helvetica" font-size="14" style="fill:light-dark(#000,#fff)" text-anchor="middle"><g transform="translate(122,171) scale(1)"><text><tspan>32</tspan></text></g></g></g></g><g data-cell-id="gOZx8YEa-yZ0dCK2RanN-23"><g transform="translate(0.5,0.5)"><path d="M157 170l-20-20" fill="none" pointer-events="stroke" stroke="#000" stroke-miterlimit="10" style="stroke:light-dark(#000,#fff)"></path></g></g><g data-cell-id="gOZx8YEa-yZ0dCK2RanN-24"><g transform="translate(0.5,0.5)"><path d="M207 75 187 55" fill="none" pointer-events="stroke" stroke="#000" stroke-miterlimit="10" style="stroke:light-dark(#000,#fff)"></path></g></g><g data-cell-id="gOZx8YEa-yZ0dCK2RanN-25"><g transform="translate(0.5,0.5)"><path d="M157 270l-20-20" fill="none" pointer-events="stroke" stroke="#000" stroke-miterlimit="10" style="stroke:light-dark(#000,#fff)"></path></g></g><g data-cell-id="gOZx8YEa-yZ0dCK2RanN-26"><g transform="translate(0.5,0.5)"><rect fill="none" height="30" pointer-events="all" stroke="none" width="30" x="107" y="240"></rect></g><g><g fill="#000" font-family="Helvetica" font-size="14" style="fill:light-dark(#000,#fff)" text-anchor="middle"><g transform="translate(122,261) scale(1)"><text><tspan>32</tspan></text></g></g></g></g><g data-cell-id="gOZx8YEa-yZ0dCK2RanN-27"><g transform="translate(0.5,0.5)"><rect fill="none" height="30" pointer-events="all" stroke="none" width="30" x="157" y="50"></rect></g><g><g fill="#000" font-family="Helvetica" font-size="14" style="fill:light-dark(#000,#fff)" text-anchor="middle"><g transform="translate(172,71) scale(1)"><text><tspan>32</tspan></text></g></g></g></g><g data-cell-id="gOZx8YEa-yZ0dCK2RanN-30"><g transform="translate(0.5,0.5)"><path d="M107 80 87 60" fill="none" pointer-events="stroke" stroke="#000" stroke-miterlimit="10" style="stroke:light-dark(#000,#fff)"></path></g></g><g data-cell-id="gOZx8YEa-yZ0dCK2RanN-31"><g transform="translate(0.5,0.5)"><rect fill="none" height="30" pointer-events="all" stroke="none" width="30" x="57" y="50"></rect></g><g><g fill="#000" font-family="Helvetica" font-size="14" style="fill:light-dark(#000,#fff)" text-anchor="middle"><g transform="translate(72,71) scale(1)"><text><tspan>32</tspan></text></g></g></g></g><g data-cell-id="gOZx8YEa-yZ0dCK2RanN-35"><g transform="translate(0.5,0.5)"><rect fill="none" height="30" pointer-events="all" stroke="none" width="80" x="367" y="170"></rect></g><g><g fill="#000" font-family="Helvetica" font-size="14" style="fill:light-dark(#000,#fff)" text-anchor="middle"><g transform="translate(407,191) scale(1)"><text><tspan>左移</tspan></text></g></g></g></g><g data-cell-id="gOZx8YEa-yZ0dCK2RanN-36"><g transform="translate(0.5,0.5)"><rect fill="none" height="30" pointer-events="all" stroke="none" width="80" x="367" y="220"></rect></g><g><g fill="#000" font-family="Helvetica" font-size="14" style="fill:light-dark(#000,#fff)" text-anchor="middle"><g transform="translate(407,241) scale(1)"><text><tspan>写使能</tspan></text></g></g></g></g></g></g></g></svg>